# xmcd
#
# Track frame offsets:
#	150
#	12218
#	20427
#	31015
#	41645
#	51648
#	62382
#	73747
#	84070
#	94303
#	103564
#	115674
#	128366
#	138407
#
# Disc length: 1987 seconds
#
# Revision: 0
# Processed by: cddbd v1.5.2PL0 Copyright (c) Steve Scherf et al.
# Submitted via: EasyCDDAExtractor 12.0.1.1
#
DISCID=aa07c10e
DTITLE=VA - Do You Remember - Do You Remember Vol. 2 Of 10
DYEAR=1960
DGENRE=Oldies
TTITLE0=Neil Sedaka -Calender Girl
TTITLE1=Buddy Holly - Rave On
TTITLE2=The Shirelles - Dedicated To The One I love
TTITLE3=Fats Domino - I Want To Walk You Home
TTITLE4=The Shangri-Las - Remember (Walking In The Sand)
TTITLE5=DuaneEddy - Rebel Rouser
TTITLE6=Fabian - Tiger
TTITLE7=Neil Sedaka - Oh! Carol
TTITLE8=Buddy Holly - That´ll Be The Day
TTITLE9=fats Domino - I´m Walking
TTITLE10=The Shirelles - Will You Love Me Tomorrow
TTITLE11=The Shangri-Las - Leader Of The Pack
TTITLE12=Duane Eddy - Cannonball
TTITLE13=Fabian - Turn Me Loose
EXTD=YEAR: 1960\n
EXTT0=Neil Sedaka\n
EXTT1=Buddy Holly\n
EXTT2=Shirelles\n
EXTT3=Fats Domino\n
EXTT4=Shangri-Las\n
EXTT5=Duane Eddy\n
EXTT6=Fabian\n
EXTT7=Neil Sedaka\n
EXTT8=Buddy Holly\n
EXTT9=Fats Domino\n
EXTT10=Shirelles\n
EXTT11=Shangri-Las\n
EXTT12=Duane Eddy\n
EXTT13=Fabian\n
PLAYORDER=
